<?xml version="1.0"?>
<svg width="24" height="24" xmlns="http://www.w3.org/2000/svg" xmlns:svg="http://www.w3.org/2000/svg">
 <g class="layer">
  <title>Layer 1</title>
  <g id="svg_1" transform="matrix(1 0 0 1 0 0) matrix(1 0 0 1 0 0)">
   <path d="m0,0l24,0l0,24l-24,0l0,-24z" fill="none" id="svg_2"/>
   <path d="m16.33,13.5a6.99,6.99 0 0 0 2.67,-5.5l2,0a8.99,8.99 0 0 1 -3.66,7.25l2.53,4.37a2,2 0 0 1 -0.74,2.74l-3.52,-6.11a8.97,8.97 0 0 1 -3.61,0.75a8.97,8.97 0 0 1 -3.61,-0.75l-3.52,6.11a2,2 0 0 1 -0.74,-2.74l5.07,-8.77a4,4 0 0 1 1.8,-6.72l0,-2.13l2,0l0,2.13a4,4 0 0 1 1.8,6.72l1.53,2.65zm-1.73,1l-1.53,-2.64a4,4 0 0 1 -2.14,0l-1.53,2.64c0.81,0.32 1.68,0.5 2.6,0.5c0.92,0 1.8,-0.18 2.6,-0.5zm-2.6,-4.5a2,2 0 1 0 0,-4a2,2 0 0 0 0,4z" fill="url(#svg_5)" id="svg_3"/>
  </g>
 </g>
 <defs>
  <linearGradient id="svg_5" x1="0" x2="1" y1="0" y2="0">
   <stop id="jq_stop_5126" offset="0" stop-color="#000000"/>
   <stop id="jq_stop_8055" offset="0" stop-color="#ffffff"/>
  </linearGradient>
 </defs>
</svg>